<svg xmlns="http://www.w3.org/2000/svg" version="1.1" xmlns:xlink="http://www.w3.org/1999/xlink" xmlns:svgjs="http://svgjs.dev/svgjs" width="1540" height="2000" preserveAspectRatio="none" viewBox="0 0 1540 2000"><g mask="url(&quot;#SvgjsMask1384&quot;)" fill="none"><path d="M1603.39 1731.84C1429.34 1692.5 1540.82 1501.69 1094.05 1231.84 647.28 961.99 838.87 156.24 584.71-90.56" stroke="rgba(51,121,194,0.58)" stroke-width="2"></path><path d="M1620.68 870.85C1433.88 896.44 1358.81 1444.3 1023.03 1330.85 687.26 1217.4 896.61 129.82 724.21-227.42" stroke="rgba(51,121,194,0.58)" stroke-width="2"></path><path d="M1788.37 957.73C1554.1 1034.98 1584.51 1808.85 1159.12 1717.73 733.73 1626.61 859.84 151.41 529.87-244.07" stroke="rgba(51,121,194,0.58)" stroke-width="2"></path><path d="M1644.88 326.37C1379.2 401.65 1308.93 1160.61 904.86 1146.37 500.78 1132.13 502.75-90.15 164.83-325.66" stroke="rgba(51,121,194,0.58)" stroke-width="2"></path><path d="M1604.44 1366.38C1412.91 1407.14 1465.26 2055.41 1037.05 1906.38 608.83 1757.35 774.2 359.27 469.65-48.39" stroke="rgba(51,121,194,0.58)" stroke-width="2"></path></g><defs><mask id="SvgjsMask1384"><rect width="1540" height="2000" fill="#ffffff"></rect></mask></defs></svg>