<svg xmlns="http://www.w3.org/2000/svg" version="1.1" xmlns:xlink="http://www.w3.org/1999/xlink" xmlns:svgjs="http://svgjs.dev/svgjs" width="1540" height="2000" preserveAspectRatio="none" viewBox="0 0 1540 2000"><g mask="url(&quot;#SvgjsMask1364&quot;)" fill="none"><rect width="1540" height="2000" x="0" y="0" fill="url(&quot;#SvgjsLinearGradient1365&quot;)"></rect><path d="M1839.41 575.07C1626.69 636.33 1522.53 1269.58 1249.11 1235.07 975.69 1200.56 1120.36 211.89 953.96-81.53" stroke="rgba(51,121,194,0.58)" stroke-width="2"></path><path d="M1662.23 1677.1C1384.8 1579.49 1498.36 978.34 929.04 757.1 359.73 535.86 487.49-153.01 195.86-277.1" stroke="rgba(51,121,194,0.58)" stroke-width="2"></path><path d="M1801.82 396.87C1578.21 429.24 1464.59 962.25 1092.48 956.87 720.38 951.49 666.51 68.6 383.15-53.91" stroke="rgba(51,121,194,0.58)" stroke-width="2"></path><path d="M1715.12 1255.58C1591.79 1246.6 1501.73 1005.58 1288.34 1005.58 1074.95 1005.58 1176.6 1355.87 861.55 1255.58 546.51 1155.29 655.51 244.25 434.77-4.56" stroke="rgba(51,121,194,0.58)" stroke-width="2"></path><path d="M1608.31 452.46C1419.83 474.15 1332.46 907.49 989.98 892.46 647.51 877.43 635.49 4.64 371.66-139.95" stroke="rgba(51,121,194,0.58)" stroke-width="2"></path></g><defs><mask id="SvgjsMask1364"><rect width="1540" height="2000" fill="#ffffff"></rect></mask><linearGradient x1="-7.47%" y1="5.75%" x2="107.47%" y2="94.25%" gradientUnits="userSpaceOnUse" id="SvgjsLinearGradient1365"><stop stop-color="#0e2a47" offset="0"></stop><stop stop-color="rgba(36, 7, 7, 0.9)" offset="1"></stop></linearGradient></defs></svg>